<svg width="135" height="20" viewBox="0 0 135 20" fill="none" xmlns="http://www.w3.org/2000/svg">
<path d="M27.9727 3.12324C27.6435 1.89323 26.6768 0.926623 25.4468 0.597366C23.2197 1.78814e-07 14.285 0 14.285 0C14.285 0 5.35042 1.78814e-07 3.12323 0.597366C1.89323 0.926623 0.926623 1.89323 0.597366 3.12324C1.78814e-07 5.35042 0 10 0 10C0 10 1.78814e-07 14.6496 0.597366 16.8768C0.926623 18.1068 1.89323 19.0734 3.12323 19.4026C5.35042 20 14.285 20 14.285 20C14.285 20 23.2197 20 25.4468 19.4026C26.6768 19.0734 27.6435 18.1068 27.9727 16.8768C28.5701 14.6496 28.5701 10 28.5701 10C28.5701 10 28.5677 5.35042 27.9727 3.12324Z" fill="#FF0000"/>
<path d="M11.4258 14.2849L18.8482 9.99991L11.4258 5.71484V14.2849Z" fill="white"/>
<path d="M34.6024 13.0031L31.3945 1.41797H34.1932L35.3174 6.66961C35.6043 7.96312 35.8136 9.06613 35.95 9.97864H36.0323C36.1264 9.32483 36.3381 8.22888 36.665 6.68843L37.8291 1.41797H40.6278L37.3799 13.0031V18.5605H34.6001V13.0031H34.6024Z" fill="white"/>
<path d="M34.6024 13.0031L31.3945 1.41797H34.1932L35.3174 6.66961C35.6043 7.96312 35.8136 9.06613 35.95 9.97864H36.0323C36.1264 9.32483 36.3381 8.22888 36.665 6.68843L37.8291 1.41797H40.6278L37.3799 13.0031V18.5605H34.6001V13.0031H34.6024Z" fill="white"/>
<path d="M110.208 12.5851L107 1H109.799L110.923 6.25164C111.21 7.54515 111.419 8.64816 111.556 9.56067H111.638C111.732 8.90686 111.944 7.81091 112.271 6.27046L113.435 1H116.233L112.985 12.5851V18.1425H110.206V12.5851H110.208Z" fill="white"/>
<path d="M41.4701 18.1922C40.9057 17.8112 40.5035 17.2185 40.2636 16.4142C40.0261 15.6099 39.9062 14.5422 39.9062 13.2063V11.3883C39.9062 10.0407 40.0426 8.95659 40.3154 8.1405C40.5882 7.32442 41.0139 6.72705 41.5924 6.35311C42.171 5.97917 42.9306 5.79102 43.8714 5.79102C44.798 5.79102 45.5388 5.98152 46.0985 6.36252C46.6559 6.74351 47.0651 7.34088 47.3238 8.14991C47.5825 8.96129 47.7119 10.0407 47.7119 11.3883V13.2063C47.7119 14.5422 47.585 15.6146 47.3334 16.4236C47.0817 17.235 46.6724 17.8277 46.1079 18.2016C45.5435 18.5756 44.7768 18.7637 43.8102 18.7637C42.813 18.766 42.0346 18.5732 41.4701 18.1922ZM44.6357 16.2308C44.7909 15.8216 44.8709 15.156 44.8709 14.2294V10.3277C44.8709 9.42931 44.7933 8.77079 44.6357 8.35687C44.4781 7.9406 44.203 7.73364 43.8078 7.73364C43.4269 7.73364 43.1565 7.9406 43.0013 8.35687C42.8437 8.77315 42.766 9.42931 42.766 10.3277V14.2294C42.766 15.156 42.8413 15.8239 42.9919 16.2308C43.1424 16.64 43.4127 16.8446 43.8078 16.8446C44.203 16.8446 44.4781 16.64 44.6357 16.2308Z" fill="white"/>
<path d="M56.8159 18.5634H54.6099L54.3653 17.03H54.3042C53.7044 18.1871 52.806 18.7656 51.6066 18.7656C50.7764 18.7656 50.1626 18.4928 49.7675 17.9496C49.3724 17.4039 49.1748 16.5526 49.1748 15.3955V6.03751H51.9947V15.2308C51.9947 15.7906 52.0558 16.188 52.1781 16.4256C52.3004 16.6631 52.505 16.783 52.7919 16.783C53.0365 16.783 53.2717 16.7078 53.4975 16.5573C53.7233 16.4067 53.8879 16.2162 53.9984 15.9858V6.03516H56.8159V18.5634Z" fill="white"/>
<path d="M64.4752 3.68709H61.6765V18.5624H58.9178V3.68709H56.1191V1.41992H64.4752V3.68709Z" fill="white"/>
<path d="M94.7587 3.26726V15.3801H98.0576V18.1426H94.7587H92V3.26726V1.00009H94.7587V3.26726Z" fill="white"/>
<path d="M71.2768 18.5634H69.0708L68.8262 17.03H68.7651C68.1654 18.1871 67.267 18.7656 66.0675 18.7656C65.2373 18.7656 64.6235 18.4928 64.2284 17.9496C63.8333 17.4039 63.6357 16.5526 63.6357 15.3955V6.03751H66.4556V15.2308C66.4556 15.7906 66.5167 16.188 66.639 16.4256C66.7613 16.6631 66.9659 16.783 67.2529 16.783C67.4974 16.783 67.7326 16.7078 67.9584 16.5573C68.1842 16.4067 68.3488 16.2162 68.4593 15.9858V6.03516H71.2768V18.5634Z" fill="white"/>
<path d="M80.6092 8.03821C80.4375 7.248 80.1623 6.6765 79.7814 6.32137C79.4004 5.96625 78.8759 5.78986 78.208 5.78986C77.6906 5.78986 77.2061 5.93567 76.7569 6.22965C76.3077 6.52363 75.9596 6.90698 75.715 7.3844H75.6939V0.785156H72.9775V18.5603H75.3058L75.5927 17.375H75.6539C75.8726 17.7983 76.1995 18.1299 76.6346 18.3769C77.0697 18.6215 77.5542 18.7438 78.0857 18.7438C79.0382 18.7438 79.7414 18.304 80.1906 17.4267C80.6398 16.5471 80.8655 15.176 80.8655 13.3087V11.3261C80.8655 9.92673 80.7785 8.82843 80.6092 8.03821ZM78.0245 13.1487C78.0245 14.0612 77.9869 14.7762 77.9116 15.2936C77.8364 15.811 77.7117 16.1803 77.533 16.3966C77.3566 16.6153 77.1167 16.7235 76.818 16.7235C76.5852 16.7235 76.3712 16.6694 76.1736 16.5589C75.9761 16.4507 75.8162 16.2861 75.6939 16.0697V8.96013C75.7879 8.61911 75.9526 8.3416 76.1854 8.12288C76.4159 7.90416 76.6699 7.79597 76.9403 7.79597C77.2273 7.79597 77.4483 7.90886 77.6036 8.13229C77.7611 8.35806 77.8693 8.73436 77.9305 9.26587C77.9916 9.79738 78.0222 10.5523 78.0222 11.533V13.1487H78.0245Z" fill="white"/>
<path d="M84.8657 13.8707C84.8657 14.675 84.8892 15.2771 84.9363 15.6793C84.9833 16.0814 85.0821 16.3731 85.2326 16.5589C85.3831 16.7423 85.6136 16.834 85.9264 16.834C86.3474 16.834 86.639 16.6694 86.7942 16.3425C86.9518 16.0156 87.0365 15.47 87.0506 14.708L89.4824 14.8514C89.4965 14.9596 89.5035 15.1101 89.5035 15.3006C89.5035 16.4577 89.186 17.3232 88.5534 17.8947C87.9208 18.4662 87.0247 18.7531 85.8676 18.7531C84.4777 18.7531 83.504 18.318 82.9466 17.4455C82.3869 16.573 82.1094 15.2254 82.1094 13.4003V11.2131C82.1094 9.33404 82.3987 7.96057 82.9772 7.0951C83.5558 6.22962 84.5459 5.79688 85.9499 5.79688C86.9165 5.79688 87.6597 5.97326 88.1771 6.32839C88.6945 6.68351 89.059 7.23385 89.2707 7.98409C89.4824 8.73432 89.5882 9.76913 89.5882 11.0908V13.2357H84.8657V13.8707ZM85.2232 7.96763C85.0797 8.14401 84.9857 8.43328 84.9363 8.83544C84.8892 9.23761 84.8657 9.84674 84.8657 10.6652V11.5636H86.9283V10.6652C86.9283 9.86085 86.9001 9.25172 86.846 8.83544C86.7919 8.41917 86.6931 8.12754 86.5496 7.95586C86.4062 7.78653 86.1851 7.69951 85.8864 7.69951C85.5854 7.70186 85.3643 7.79124 85.2232 7.96763Z" fill="white"/>
<path d="M104.069 15.0267V10.0642C104.069 9.7148 104.029 9.41533 103.947 9.16578C103.865 8.91622 103.737 8.72014 103.563 8.57754C103.389 8.43494 103.163 8.36364 102.886 8.36364C102.652 8.36364 102.448 8.41711 102.273 8.52406C102.105 8.63102 101.974 8.78431 101.882 8.98396C101.795 9.1836 101.751 9.42959 101.751 9.72193H99.2041C99.2041 9.20143 99.2939 8.71658 99.4735 8.26738C99.6531 7.81818 99.9088 7.42246 100.241 7.08021C100.578 6.73797 100.981 6.47415 101.449 6.28877C101.917 6.09626 102.442 6 103.024 6C103.716 6 104.331 6.1533 104.869 6.45989C105.414 6.75936 105.844 7.21212 106.159 7.81818C106.475 8.41711 106.633 9.17291 106.633 10.0856V14.9305C106.633 15.6292 106.663 16.1783 106.722 16.5775C106.788 16.9697 106.88 17.3119 107 17.6043V17.7861H104.429C104.309 17.451 104.219 17.0374 104.159 16.5455C104.099 16.0463 104.069 15.5401 104.069 15.0267ZM104.388 10.7273L104.404 12.5668H103.139C102.856 12.5668 102.611 12.6132 102.404 12.7059C102.203 12.7986 102.039 12.9269 101.914 13.0909C101.789 13.2478 101.697 13.4332 101.637 13.6471C101.582 13.8538 101.555 14.082 101.555 14.3316C101.555 14.5668 101.599 14.7807 101.686 14.9733C101.773 15.1586 101.893 15.3048 102.045 15.4118C102.197 15.5187 102.374 15.5722 102.576 15.5722C102.907 15.5722 103.19 15.4866 103.424 15.3155C103.664 15.1444 103.849 14.9376 103.98 14.6952C104.11 14.4456 104.176 14.2139 104.176 14L104.788 15.3904C104.69 15.6756 104.57 15.9715 104.429 16.2781C104.287 16.5775 104.107 16.8592 103.89 17.123C103.672 17.3797 103.408 17.59 103.098 17.754C102.793 17.918 102.426 18 101.996 18C101.441 18 100.937 17.8538 100.486 17.5615C100.034 17.262 99.6721 16.8521 99.4 16.3316C99.1333 15.8111 99 15.2121 99 14.5348C99 13.9287 99.0844 13.3904 99.2531 12.9198C99.4218 12.4492 99.6748 12.0499 100.012 11.7219C100.355 11.3939 100.785 11.148 101.302 10.984C101.819 10.8128 102.423 10.7273 103.114 10.7273H104.388Z" fill="white"/>
<path d="M126 1H130.356C131.223 1 131.974 1.1946 132.608 1.58379C133.247 1.97299 133.738 2.54899 134.081 3.31181C134.423 4.07463 134.595 5.01648 134.595 6.13736C134.595 7.07143 134.494 7.86538 134.291 8.51923C134.088 9.17308 133.803 9.71406 133.434 10.1422C133.07 10.5703 132.644 10.9167 132.156 11.1813L131.33 11.8585H127.621L127.605 8.90453H130.364C130.743 8.90453 131.057 8.80334 131.306 8.60096C131.556 8.39858 131.743 8.11447 131.868 7.74863C131.997 7.375 132.062 6.9391 132.062 6.44093C132.062 5.9272 131.997 5.48352 131.868 5.10989C131.738 4.73626 131.545 4.45215 131.291 4.25756C131.042 4.05517 130.73 3.95398 130.356 3.95398H128.54V18H126V1ZM132.281 18L129.732 10.4457L132.413 10.4341L135 17.8249V18H132.281Z" fill="white"/>
<path d="M118.756 13.0738C118.756 13.8781 118.78 14.4802 118.827 14.8824C118.874 15.2845 118.973 15.5762 119.123 15.762C119.274 15.9454 119.504 16.0371 119.817 16.0371C120.238 16.0371 120.53 15.8725 120.685 15.5456C120.842 15.2187 120.927 14.6731 120.941 13.9111L123.373 14.0545C123.387 14.1627 123.394 14.3132 123.394 14.5037C123.394 15.6608 123.077 16.5263 122.444 17.0978C121.811 17.6693 120.915 17.9562 119.758 17.9562C118.368 17.9562 117.395 17.5211 116.837 16.6486C116.278 15.7761 116 14.4285 116 12.6034V10.4162C116 8.53716 116.289 7.16369 116.868 6.29822C117.446 5.43274 118.436 5 119.84 5C120.807 5 121.55 5.17639 122.068 5.53152C122.585 5.88664 122.95 6.43697 123.161 7.18721C123.373 7.93744 123.479 8.97225 123.479 10.2939V12.4388H118.756V13.0738ZM119.114 7.17075C118.97 7.34713 118.876 7.63641 118.827 8.03857C118.78 8.44074 118.756 9.04986 118.756 9.86834V10.7667H120.819V9.86834C120.819 9.06397 120.791 8.45485 120.737 8.03857C120.683 7.6223 120.584 7.33067 120.44 7.15899C120.297 6.98966 120.076 6.90264 119.777 6.90264C119.476 6.90499 119.255 6.99436 119.114 7.17075Z" fill="white"/>
</svg>
